<svg width="637" height="158" viewBox="0 0 637 158" fill="none" xmlns="http://www.w3.org/2000/svg">
<g clip-path="url(#clip0_7_98)">
<path d="M72.8462 28.5717H48.3313V93.5774H24.898V28.5717H0.262939V8.10693H72.8462V28.5717ZM74.4065 71.9088V30.257H97.239V66.7325C97.239 69.4612 97.8399 71.6281 99.0416 73.233C100.324 74.758 102.046 75.5203 104.209 75.5203C105.411 75.5203 106.612 75.3599 107.814 75.0387C109.016 74.7176 110.217 74.0757 111.419 73.1126C112.701 72.1496 113.943 70.7854 115.145 69.0197V30.257H137.977V68.2974C137.977 70.4643 138.298 71.9892 138.938 72.8719C139.579 73.6746 140.701 74.1561 142.303 74.3165V93.5774C140.3 93.9785 138.498 94.2597 136.895 94.4201C135.293 94.6608 133.891 94.7812 132.689 94.7812C128.844 94.7812 125.8 94.0589 123.556 92.6144C121.313 91.1698 119.871 88.963 119.23 85.9934L118.75 83.7062C115.785 87.6388 112.221 90.4875 108.054 92.2532C103.969 93.9386 99.3218 94.7812 94.1146 94.7812C87.7854 94.7812 82.8988 92.8152 79.4537 88.8826C76.0889 84.95 74.4065 79.292 74.4065 71.9088Z" fill="#28B6F6"/>
<path d="M217.734 93.5774V48.555L203.434 80.2152H190.936L176.635 48.555V93.5774H153.202V8.10696H178.799L197.185 48.3142L215.691 8.10696H241.167V93.5774H217.734ZM284.276 94.7812C278.748 94.7812 273.821 93.9386 269.495 92.2533C265.169 90.4875 261.524 88.1203 258.559 85.1508C255.675 82.1812 253.472 78.7706 251.95 74.9184C250.428 71.0662 249.667 67.0132 249.667 62.7599C249.667 56.6605 250.988 51.083 253.632 46.027C256.276 40.8905 260.161 36.7977 265.289 33.7481C270.416 30.6182 276.745 29.0532 284.276 29.0532C291.807 29.0532 298.135 30.5781 303.263 33.6277C308.39 36.6774 312.276 40.6902 314.919 45.6658C317.563 50.6414 318.885 56.0585 318.885 61.9172C318.885 63.1211 318.805 64.3648 318.645 65.6491C318.564 66.8529 318.444 67.9363 318.284 68.8993H273.941C274.101 71.1466 274.702 72.9923 275.744 74.4369C276.865 75.801 278.227 76.8045 279.829 77.4464C281.512 78.0883 283.234 78.4094 284.997 78.4094C287.481 78.4094 289.804 77.8475 291.967 76.7241C294.21 75.6007 295.692 74.0358 296.413 72.0293L315.761 77.5668C314.078 80.9374 311.715 83.907 308.671 86.475C305.706 89.0429 302.181 91.0894 298.095 92.6144C294.01 94.059 289.403 94.7812 284.276 94.7812ZM273.46 55.1759H294.37C294.13 53.0895 293.529 51.3237 292.568 49.8792C291.686 48.4346 290.485 47.3112 288.962 46.5085C287.52 45.7058 285.838 45.3047 283.915 45.3047C281.993 45.3047 280.27 45.7058 278.748 46.5085C277.306 47.3112 276.104 48.4346 275.143 49.8792C274.262 51.3237 273.701 53.0895 273.46 55.1759ZM291.486 26.6456L277.066 22.7934L283.074 5.69934H303.383L291.486 26.6456ZM323.016 61.7969C323.016 55.5371 324.178 49.9596 326.501 45.0639C328.904 40.0883 332.189 36.1958 336.355 33.387C340.521 30.4978 345.287 29.0532 350.655 29.0532C354.741 29.0532 358.506 30.0163 361.951 31.9424C365.396 33.7882 368 36.3564 369.762 39.6468V5.69934H392.595V68.2974C392.595 70.4643 392.916 71.9893 393.556 72.8719C394.197 73.6746 395.319 74.1561 396.921 74.3165V93.5774C392.995 94.3801 389.791 94.7812 387.307 94.7812C383.462 94.7812 380.418 94.059 378.174 92.6144C375.931 91.1698 374.489 88.963 373.848 85.9934L373.368 83.7062C371.204 87.5584 368.28 90.3671 364.595 92.1329C360.91 93.8986 356.984 94.7812 352.818 94.7812C348.492 94.7812 344.487 93.9786 340.801 92.3736C337.196 90.7687 334.032 88.5214 331.308 85.6323C328.664 82.6628 326.621 79.1717 325.179 75.1592C323.737 71.0662 323.016 66.6121 323.016 61.7969ZM369.883 69.0197V57.7039C369.162 55.8582 368.16 54.2528 366.878 52.8887C365.677 51.4441 364.315 50.3207 362.793 49.518C361.27 48.7153 359.708 48.3142 358.106 48.3142C356.423 48.3142 354.861 48.6753 353.419 49.3976C352.057 50.1199 350.856 51.1229 349.814 52.4072C348.772 53.6914 347.972 55.1759 347.411 56.8612C346.85 58.5466 346.569 60.3523 346.569 62.2784C346.569 64.2849 346.85 66.0906 347.411 67.6955C348.051 69.3005 348.933 70.7051 350.054 71.9089C351.176 73.0323 352.498 73.9154 354.02 74.5573C355.542 75.1991 357.225 75.5203 359.067 75.5203C360.189 75.5203 361.23 75.3999 362.192 75.1592C363.153 74.838 364.074 74.4369 364.956 73.9553C365.837 73.3934 366.678 72.7116 367.479 71.9089C368.36 71.0262 369.162 70.0632 369.883 69.0197ZM406.299 93.5774V30.2571H429.132V93.5774H406.299ZM406.299 24.9603V5.69934H429.132V24.9603H406.299ZM471.929 94.7812C466.32 94.7812 461.353 93.8986 457.027 92.1329C452.781 90.3671 449.176 87.9595 446.212 84.91C443.247 81.7801 441.005 78.2491 439.482 74.3165C437.96 70.3839 437.199 66.251 437.199 61.9172C437.199 56.139 438.521 50.7618 441.165 45.7862C443.889 40.7302 447.814 36.6774 452.941 33.6277C458.149 30.5781 464.478 29.0532 471.929 29.0532C479.539 29.0532 485.946 30.6583 491.157 33.8685C496.363 37.0787 500.249 41.2117 502.812 46.2677L480.581 53.0091C479.539 51.4841 478.257 50.3207 476.736 49.518C475.295 48.7153 473.652 48.3142 471.807 48.3142C469.723 48.3142 467.843 48.8761 466.16 49.9995C464.478 51.043 463.116 52.5675 462.074 54.574C461.113 56.5805 460.632 59.0281 460.632 61.9172C460.632 64.726 461.113 67.174 462.074 69.2605C463.116 71.267 464.478 72.8319 466.16 73.9553C467.843 74.9988 469.723 75.5203 471.807 75.5203C473.089 75.5203 474.253 75.3599 475.295 75.0388C476.332 74.6377 477.295 74.0757 478.177 73.3534C479.14 72.6312 479.938 71.7885 480.581 70.8254L502.812 77.5668C501.132 80.9374 498.808 83.907 495.842 86.475C492.959 89.0429 489.514 91.0894 485.51 92.6144C481.581 94.059 477.055 94.7812 471.929 94.7812ZM540.577 94.7812C534.972 94.7812 530.001 93.8986 525.678 92.1329C521.35 90.3671 517.707 87.9595 514.74 84.91C511.858 81.7801 509.652 78.2491 508.131 74.3165C506.69 70.3839 505.967 66.251 505.967 61.9172C505.967 57.5835 506.69 53.4506 508.131 49.518C509.652 45.5055 511.858 41.974 514.74 38.9245C517.707 35.8748 521.35 33.4672 525.678 31.7016C530.001 29.936 534.972 29.0532 540.577 29.0532C546.266 29.0532 551.233 29.936 555.481 31.7016C559.804 33.4672 563.409 35.8748 566.296 38.9245C569.258 41.974 571.46 45.5055 572.906 49.518C574.427 53.4506 575.187 57.5835 575.187 61.9172C575.187 66.251 574.427 70.3839 572.906 74.3165C571.46 78.2491 569.258 81.7801 566.296 84.91C563.409 87.9595 559.804 90.3671 555.481 92.1329C551.233 93.8986 546.266 94.7812 540.577 94.7812ZM529.4 61.9172C529.4 64.726 529.884 67.174 530.846 69.2605C531.804 71.267 533.127 72.8319 534.808 73.9553C536.493 74.9988 538.413 75.5203 540.577 75.5203C542.741 75.5203 544.666 74.9988 546.346 73.9553C548.027 72.8319 549.35 71.267 550.313 69.2605C551.275 67.174 551.754 64.726 551.754 61.9172C551.754 59.1085 551.275 56.7009 550.313 54.6944C549.35 52.6079 548.027 51.043 546.346 49.9995C544.666 48.8761 542.741 48.3142 540.577 48.3142C538.413 48.3142 536.493 48.8761 534.808 49.9995C533.127 51.043 531.804 52.6079 530.846 54.6944C529.884 56.7009 529.4 59.1085 529.4 61.9172Z" fill="#00446A"/>
<path d="M628.691 11.7183V29.7754H618.477V41.2116H598.048V29.7754H587.833V11.7183H598.048V0.282104H618.477V11.7183H628.691Z" fill="#00446A"/>
<path d="M384.09 136.945V157.53H377.872V125.478H382.829L399.367 146.605V125.524H405.586V157.53H400.404L384.09 136.945ZM412.242 157.53V125.478H418.461V157.53H412.242ZM423.199 141.278C423.199 139.322 423.544 137.411 424.235 135.545C424.956 133.649 425.993 131.934 427.344 130.399C428.696 128.834 430.349 127.6 432.302 126.697C434.254 125.764 436.477 125.298 438.971 125.298C441.915 125.298 444.454 125.945 446.587 127.239C448.75 128.533 450.357 130.218 451.409 132.295L446.631 135.59C446.091 134.387 445.385 133.439 444.514 132.746C443.643 132.024 442.711 131.528 441.72 131.257C440.729 130.956 439.752 130.805 438.791 130.805C437.229 130.805 435.862 131.121 434.69 131.753C433.548 132.385 432.587 133.213 431.806 134.236C431.025 135.259 430.439 136.403 430.048 137.667C429.688 138.931 429.508 140.195 429.508 141.459C429.508 142.873 429.733 144.243 430.184 145.567C430.634 146.861 431.265 148.02 432.076 149.043C432.917 150.036 433.909 150.834 435.05 151.436C436.222 152.007 437.499 152.293 438.881 152.293C439.872 152.293 440.879 152.128 441.9 151.797C442.922 151.466 443.868 150.939 444.739 150.217C445.61 149.494 446.286 148.561 446.767 147.418L451.859 150.352C451.228 151.947 450.192 153.301 448.75 154.415C447.338 155.529 445.746 156.371 443.973 156.943C442.201 157.515 440.443 157.801 438.701 157.801C436.417 157.801 434.329 157.334 432.437 156.401C430.544 155.438 428.907 154.174 427.525 152.609C426.173 151.014 425.106 149.239 424.325 147.282C423.574 145.296 423.199 143.295 423.199 141.278ZM464.287 125.478H470.596L482.36 157.53H475.957L472.985 149.54H461.809L458.879 157.53H452.48L464.287 125.478ZM471.859 145.161L467.442 131.934L462.845 145.161H471.859ZM485.866 157.53V125.478H500.019C501.489 125.478 502.84 125.779 504.075 126.381C505.333 126.983 506.417 127.796 507.319 128.819C508.248 129.842 508.957 130.986 509.436 132.25C509.947 133.514 510.201 134.808 510.201 136.132C510.201 137.486 509.962 138.796 509.483 140.06C509.032 141.293 508.37 142.377 507.497 143.31C506.629 144.243 505.605 144.965 504.432 145.477L511.736 157.53H504.882L498.306 146.786H492.086V157.53H485.866ZM492.086 141.324H499.883C500.662 141.324 501.352 141.098 501.953 140.646C502.554 140.165 503.038 139.533 503.399 138.75C503.756 137.968 503.939 137.095 503.939 136.132C503.939 135.109 503.728 134.221 503.305 133.469C502.887 132.686 502.348 132.069 501.686 131.618C501.052 131.166 500.362 130.941 499.611 130.941H492.086V141.324ZM524.532 125.478H530.841L542.605 157.53H536.207L533.231 149.54H522.054L519.125 157.53H512.726L524.532 125.478ZM532.104 145.161L527.687 131.934L523.091 145.161H532.104ZM558.175 157.756C556.101 157.756 554.134 157.334 552.27 156.492C550.439 155.649 548.815 154.49 547.407 153.016C546.022 151.511 544.943 149.765 544.159 147.779C543.379 145.793 542.99 143.641 542.99 141.324C542.99 139.127 543.379 137.065 544.159 135.139C544.943 133.183 546.036 131.467 547.449 129.993C548.862 128.518 550.515 127.359 552.406 126.517C554.298 125.674 556.359 125.253 558.579 125.253C561.583 125.253 564.156 125.9 566.287 127.194C568.451 128.458 570.07 130.143 571.155 132.25L566.512 135.681C565.7 134.086 564.56 132.867 563.086 132.024C561.644 131.181 560.067 130.76 558.354 130.76C557.002 130.76 555.772 131.046 554.659 131.618C553.547 132.19 552.589 132.972 551.777 133.965C550.965 134.958 550.336 136.102 549.886 137.396C549.463 138.69 549.252 140.06 549.252 141.504C549.252 143.039 549.477 144.453 549.928 145.748C550.411 147.042 551.068 148.17 551.913 149.133C552.782 150.096 553.791 150.864 554.932 151.436C556.072 151.977 557.335 152.248 558.715 152.248C560.339 152.248 561.884 151.827 563.358 150.984C564.86 150.141 566.259 148.908 567.55 147.282V153.422C564.874 156.311 561.752 157.756 558.175 157.756ZM567.099 145.612H560.654V141.053H572.235V157.53H567.099V145.612ZM591.1 157.756C588.547 157.756 586.369 157.334 584.566 156.492C582.792 155.619 581.351 154.43 580.238 152.925C579.158 151.421 578.36 149.72 577.849 147.824C577.342 145.898 577.084 143.897 577.084 141.82V125.478H583.303V141.82C583.303 143.144 583.425 144.438 583.665 145.702C583.932 146.936 584.369 148.05 584.97 149.043C585.571 150.036 586.369 150.819 587.359 151.39C588.35 151.962 589.584 152.248 591.053 152.248C592.556 152.248 593.804 151.962 594.795 151.39C595.818 150.789 596.611 149.991 597.184 148.998C597.785 148.005 598.221 146.891 598.489 145.657C598.761 144.393 598.897 143.114 598.897 141.82V125.478H605.07V141.82C605.07 144.017 604.798 146.079 604.258 148.005C603.747 149.931 602.92 151.631 601.78 153.106C600.667 154.55 599.226 155.694 597.452 156.537C595.682 157.349 593.565 157.756 591.1 157.756ZM618.754 125.478H625.063L636.826 157.53H630.428L627.452 149.54H616.275L613.346 157.53H606.948L618.754 125.478ZM626.326 145.161L621.908 131.934L617.313 145.161H626.326Z" fill="#00446A"/>
</g>
<defs>
<clipPath id="clip0_7_98">
<rect width="637" height="158" fill="white"/>
</clipPath>
</defs>
</svg>
